Coordinates
version=1
nRows=11
nColumns=36
inDegrees=yes

Units are S.I. units (second, meters, Newtons, ...)
If the header above contains a line with 'inDegrees', this indicates whether rotational values are in degrees (yes) or radians (no).

endheader
time	pelvis_tilt	pelvis_list	pelvis_rotation	pelvis_tx	pelvis_ty	pelvis_tz	hip_flexion_r	hip_adduction_r	hip_rotation_r	knee_angle_r	knee_angle_r_beta	ankle_angle_r	subtalar_angle_r	mtp_angle_r	hip_flexion_l	hip_adduction_l	hip_rotation_l	knee_angle_l	knee_angle_l_beta	ankle_angle_l	subtalar_angle_l	mtp_angle_l	lumbar_extension	lumbar_bending	lumbar_rotation	arm_flex_r	arm_add_r	arm_rot_r	elbow_flex_r	pro_sup_r	arm_flex_l	arm_add_l	arm_rot_l	elbow_flex_l	pro_sup_l
      3.48333330	    -14.42663567	      2.80095630	      1.80671912	      0.72343009	      0.91816289	      0.24769364	     42.61010907	    -15.87015479	     -4.02015441	     50.39247334	      0.87951458	     18.97351477	     -1.70777691	     -7.49999987	     42.90877606	    -10.04594042	     -5.20909895	     47.04118122	      0.82102350	     18.55579726	     -0.88420648	     -7.49999987	    -22.45397850	     -0.51862151	     -0.41458201	      8.46662036	    -25.92939102	     16.67883395	    116.48178550	     95.20788588	      7.71030201	    -23.92726892	     10.31465451	    130.73072773	     96.11117584
      3.50000000	    -16.66084961	      2.80991039	      1.88058185	      0.69817004	      0.90258086	      0.24675951	     49.86621405	    -16.23482735	     -2.82930669	     57.75924714	      1.00808904	     23.84802380	     -0.80494777	     -7.49999987	     49.85852595	    -10.69285710	     -4.67410131	     53.87199017	      0.94024360	     22.08427657	     -1.21061500	     -7.49999987	    -24.69023523	     -0.12390767	     -0.91055514	     16.43872174	    -25.02881438	     18.31635240	    116.56282919	     96.08011173	     15.02817822	    -24.09186971	     11.29225086	    129.46464773	     96.15422430
      3.51666670	    -18.79904922	      2.55328401	      1.82691873	      0.68474432	      0.88800488	      0.24422353	     56.21074460	    -16.25154937	     -2.19898782	     63.13941368	      1.10199066	     26.62854803	     -0.35772489	     -7.49999987	     56.13966534	    -11.28300620	     -3.87607087	     59.12139139	      1.03186294	     23.62109413	     -2.70424937	     -7.49999987	    -27.38048124	      0.54445397	     -1.59558770	     26.55771558	    -23.62096249	     20.51925525	    115.49592894	    100.10806998	     22.15088805	    -24.04175298	     12.27639170	    128.32520630	     95.17338073
      3.53333330	    -20.68016406	      2.16613316	      1.62965280	      0.67885781	      0.87031370	      0.24689984	     61.40965177	    -16.02597399	     -1.89292514	     67.15790151	      1.17212650	     28.41539556	     -0.11848515	     -7.49999987	     61.32497396	    -11.88494545	     -3.06280939	     63.13180740	      1.10185790	     24.14297757	     -4.50461569	     -7.49999987	    -29.35158790	      1.04776657	     -1.17404713	     34.67993220	    -22.91463356	     22.60994571	    115.65910591	    100.82493338	     30.11712852	    -23.39601727	     14.50746944	    126.66756305	     95.53568220
      3.55000000	    -22.53902494	      1.87866492	      1.37965998	      0.66892265	      0.85881050	      0.24654410	     65.80768997	    -15.78390525	     -1.62050196	     69.93292892	      1.22055987	     29.21924936	     -0.27959035	     -7.49999987	     65.77626179	    -12.39144534	     -2.50568904	     66.01139187	      1.15211613	     24.21502275	     -5.90239487	     -7.49999987	    -30.83879143	      1.19778039	      0.16096487	     41.84803199	    -23.14325369	     23.88520384	    118.04849996	    102.32775067	     38.80643435	    -22.43939953	     18.74323491	    125.28130112	     96.04298065
      3.56666670	    -24.10436511	      1.67205825	      1.23118904	      0.66850198	      0.85029189	      0.24722646	     69.01690847	    -15.56159545	     -1.41769035	     71.64340383	      1.25041328	     29.53726227	     -0.58840309	     -7.49999987	     69.06568305	    -12.64420314	     -2.03925685	     67.80968121	      1.18350220	     24.26020165	     -6.90719551	     -7.49999987	    -31.87589879	      1.26608362	      0.57913137	     48.17835515	    -22.39004464	     26.18890807	    119.93852157	    102.60033359	     44.18016151	    -21.55935987	     20.75568108	    124.36986710	     96.39409466
      3.58333330	    -25.48065700	      1.60791780	      1.17297912	      0.66283113	      0.84093307	      0.24370979	     71.79771306	    -15.46467297	     -1.02790629	     72.91645451	      1.27263221	     29.33891331	     -1.17181571	     -7.49999987	     71.85992567	    -12.72794401	     -1.81486772	     69.26979436	      1.20898598	     24.09329165	     -7.62232477	     -7.49999987	    -32.67055208	      1.39521769	      0.89878997	     53.47969365	    -22.07360241	     28.09476040	    122.19756939	    102.78670438	     49.75764509	    -20.17768597	     22.35132415	    123.83009016	     96.84212990
      3.60000000	    -26.81375468	      1.61166948	      1.16564877	      0.65009448	      0.83392834	      0.23823536	     74.42252945	    -15.50683029	     -0.66061109	     73.81255150	      1.28827205	     28.73519200	     -1.77619248	     -7.49999987	     74.49907440	    -12.67128655	     -1.66035592	     70.47073852	      1.22994641	     23.90569539	     -8.16126278	     -7.49999987	    -33.24608237	      1.44562161	      1.51877820	     58.59944764	    -21.78775383	     29.50884184	    124.06850485	    102.83399725	     54.70918583	    -18.15181156	     23.87667994	    123.37865190	     97.35131367
      3.61666670	    -27.91801046	      1.55636456	      1.26792954	      0.64427551	      0.83276289	      0.23499723	     76.43797012	    -15.66801420	     -0.50133367	     74.22508925	      1.29547219	     28.01301131	     -2.33555242	     -7.49999987	     76.62091271	    -12.47093654	     -1.48353038	     71.21331990	      1.24290690	     23.64225802	     -8.76277385	     -7.49999987	    -34.18113702	      1.44526634	      2.74486931	     62.92908537	    -22.30599473	     30.48798840	    126.38441628	    100.58185245	     59.26068112	    -16.05460987	     26.27816400	    122.62408961	     97.33959846
      3.63333330	    -29.18773183	      1.60479066	      1.38597140	      0.63231698	      0.82598640	      0.23053539	     78.77304049	    -15.94673251	     -0.26220168	     74.68729338	      1.30353918	     26.92301219	     -3.06962346	     -7.49999987	     78.96167836	    -12.22187327	     -1.47911528	     71.95409670	      1.25583590	     22.99094697	     -9.43802638	     -7.49999987	    -34.90626105	      1.63503064	      3.41822895	     68.13225976	    -22.03603459	     31.28524869	    127.96970605	    100.57018151	     63.91714704	    -14.69947534	     26.64791024	    122.22492747	     97.92873656
      3.65000000	    -30.07030309	      1.54580943	      1.53027579	      0.63258225	      0.82684166	      0.23055081	     80.01877831	    -16.20630380	     -0.29984988	     74.53239142	      1.30083563	     26.03557755	     -3.47584598	     -7.49999987	     80.43482176	    -11.82866045	     -1.25653568	     72.13728437	      1.25903313	     22.48123796	     -9.89880720	     -7.49999987	    -35.87076917	      1.88339748	      4.01119196	     71.29483443	    -21.63885573	     32.02894185	    129.49226703	    100.37638014	     66.80948864	    -13.98141302	     26.48440598	    122.21583412	     98.32162864
